<?xml version="1.0" encoding="UTF-8" standalone="no"?>
<svg viewBox="0 0 140 190" xmlns="http://www.w3.org/2000/svg" xmlns:xlink="http://www.w3.org/1999/xlink">
<defs>
<linearGradient id="linearGradient6214">
<stop offset="0" stop-color="#c10000"/>
<stop offset="1" stop-color="#ff433e"/>
</linearGradient>
<linearGradient id="linearGradient5407">
<stop offset="0" stop-color="#f0eb00"/>
<stop offset="1" stop-color="#ff0"/>
</linearGradient>
<linearGradient gradientTransform="matrix(.18682,0,0,.14486,77.30080,1.47508)" gradientUnits="userSpaceOnUse" id="linearGradient28236" x1="356.44232" x2="484.79608" y1="437.49887" y2="256.17966">
<stop offset="0" stop-color="#ffd8c1"/>
<stop offset="1" stop-color="#ffeded"/>
</linearGradient>
<linearGradient gradientUnits="userSpaceOnUse" id="linearGradient28244" x1="141.31916" x2="155.39189" y1="75.51958" y2="70.09004">
<stop offset="0" stop-color="#008200"/>
<stop offset="1" stop-color="#00d000"/>
</linearGradient>
<linearGradient gradientTransform="matrix(.18685,0,0,.14486,77.29650,1.48674)" gradientUnits="userSpaceOnUse" id="linearGradient28252" x1="652.29529" x2="410.90594" y1="77.39452" y2="344.41714">
<stop offset="0" stop-color="#fff"/>
<stop offset="1" stop-color="#fff" stop-opacity="0"/>
</linearGradient>
<linearGradient gradientUnits="userSpaceOnUse" id="linearGradient37443" x1="2" x2="109" y1="62.09952" y2="127.69501">
<stop offset="0" stop-color="#ebf0d0"/>
<stop offset="1" stop-color="#ffffeb"/>
</linearGradient>
<linearGradient gradientUnits="userSpaceOnUse" id="linearGradient28238" x1="145.52467" x2="167.30211" xlink:href="#linearGradient6214" y1="91.7561" y2="73.64902"/>
<linearGradient gradientUnits="userSpaceOnUse" id="linearGradient28240" x1="142.7173" x2="145.30247" xlink:href="#linearGradient6214" y1="64.97625" y2="61.47251"/>
<linearGradient gradientUnits="userSpaceOnUse" id="linearGradient28242" x1="148.03905" x2="152.19192" xlink:href="#linearGradient5407" y1="89.8804" y2="86.6929"/>
<linearGradient gradientUnits="userSpaceOnUse" id="linearGradient28246" x1="146.68143" x2="155.00199" xlink:href="#linearGradient5407" y1="30.95314" y2="28.51564"/>
<linearGradient gradientUnits="userSpaceOnUse" id="linearGradient28248" x1="140.14638" x2="163.78562" xlink:href="#linearGradient6214" y1="28.6577" y2="23.42159"/>
<linearGradient gradientUnits="userSpaceOnUse" id="linearGradient28250" x1="104.75" x2="109.5" xlink:href="#linearGradient5407" y1="57.46875" y2="55.78125"/>
</defs>
<path d="m21,5h103c8.864,0 16,7.136 16,16v153c0,8.864-7.136,16-16,16h-103c-8.864,0-16-7.136-16-16v-153c0-8.864 7.136-16 16-16z" fill-opacity=".49804"/>
<path d="m17,1h103c8.864,0 16,7.136 16,16v153c0,8.864-7.136,16-16,16h-103c-8.864,0-16-7.136-16-16v-153c0-8.864 7.136-16 16-16z" fill="#fff"/>
<path d="m19,3h103c8.864,0 16,7.136 16,16v153c0,8.864-7.136,16-16,16h-103c-8.864,0-16-7.136-16-16v-153c0-8.864 7.136-16 16-16z" fill="#c7891f"/>
<path d="m18,2h103c8.864,0 16,7.136 16,16v153c0,8.864-7.136,16-16,16h-103c-8.864,0-16-7.136-16-16v-153c0-8.864 7.136-16 16-16z" fill="url(#linearGradient37443)"/>
<path d="m103.53125,21c-.49728.00194-.9726.09931-1.4375.28125-.9298.36388-1.73845,1.1114-2.03125,2.1875-.17557.64526-.12276,1.38092.1875,2s.93159,1.11934 1.75,1.125c.47552.00329.84996-.1962 1.15625-.53125 .15315-.16753.31341-.41588.3125-.71875s-.20998-.58273-.46875-.75l-.53125.8125c.07009.04531.00017-.00496 0-.0625s.01723-.02179-.03125.03125c-.09695.10606-.45498.21863-.4375.21875-.42286-.00293-.65496-.21705-.84375-.59375s-.22731-.90525-.125-1.28125c.20426-.7507.71786-1.23059 1.40625-1.5s1.55215-.2977 2.25-.03125c2.11599.8079 2.82469,3.42928 1.9375,5.4375-.77925,1.76385-2.58067,2.82959-4.5,2.90625l-62.78125.375v1l62.5625-.375v.0625c.07809.00035.14087-.05998.21875-.0625h.34375v-.09375c2.16345-.19422 4.19059-1.36191 5.09375-3.40625 1.10087-2.49188.1434-5.74812-2.5625-6.78125-.4725-.1804-.97148-.25194-1.46875-.25zm11.40625,3.03125c-.67184.02277-1.34578.16228-1.96875.4375-2.04434.90316-3.21203,2.9303-3.40625,5.09375h-.09375v.34375c-.00252.07788-.06285.14066-.0625.21875h.0625l.25,69.09375h1l-.25-69.3125c.07667-1.91933 1.1424-3.72075 2.90625-4.5 2.00822-.88719 4.6296-.17849 5.4375,1.9375 .26645.69785.23816,1.56161-.03125,2.25s-.7493,1.20199-1.5,1.40625c-.376.10231-.90455.06379-1.28125-.125s-.59082-.42089-.59375-.84375c.00012.01748.11269-.34055.21875-.4375 .05304-.04848.08879-.03107.03125-.03125s-.10781-.07009-.0625,0l.8125-.53125c-.16727-.25877-.44713-.46784-.75-.46875s-.55122.15935-.71875.3125c-.33505.30629-.53454.68073-.53125,1.15625 .00566.81841.50592,1.43974 1.125,1.75s1.35474.36307 2,.1875c1.0761-.2928 1.82362-1.10145 2.1875-2.03125 .18194-.4649.27931-.94022.28125-1.4375s-.0696-.99625-.25-1.46875c-.77485-2.02942-2.79699-3.0683-4.8125-3zm-85.65625,65.96875 .25,69.3125c-.07667,1.91933-1.1424,3.72074-2.90625,4.5-2.00822.88719-4.6296.17848-5.4375-1.9375-.26645-.69785-.23816-1.56162.03125-2.25s.7493-1.202 1.5-1.40625c.376-.10231.90455-.0638 1.28125.125s.59082.42088.59375.84375c-.00012-.01748-.11269.34054-.21875.4375-.05304.04848-.08879.03106-.03125.03125s.10781.07008.0625,0l-.8125.53125c.16727.25877.44713.46783.75.46875s.55122-.15936.71875-.3125c.33505-.30629.53454-.68074.53125-1.15625-.00566-.81841-.50592-1.43975-1.125-1.75s-1.35474-.36308-2-.1875c-1.0761.2928-1.82362,1.10144-2.1875,2.03125-.18194.4649-.27931.94021-.28125,1.4375s.0696.99624.25,1.46875c1.03313,2.7059 4.28937,3.66336 6.78125,2.5625 2.04434-.90316 3.21203-2.93031 3.40625-5.09375h.09375v-.34375c.00252-.07788.06285-.14067.0625-.21875h-.0625l-.25-69.09375h-1zm71.375,67.3125-62.5625.375v-.0625c-.07809-.00035-.14087.05998-.21875.0625h-.34375v.09375c-2.16345.19422-4.19059,1.36191-5.09375,3.40625-1.10087,2.49189-.1434,5.74812 2.5625,6.78125 .4725.1804.97148.25194 1.46875.25s.9726-.09931 1.4375-.28125c.9298-.36388 1.73845-1.1114 2.03125-2.1875 .17556-.64526.12276-1.38092-.1875-2s-.93159-1.11934-1.75-1.125c-.47552-.00329-.84996.1962-1.15625.53125-.15315.16753-.31341.41588-.3125.71875s.20998.58273.46875.75l.53125-.8125c-.07009-.04531-.00017.00496 0,.0625s-.01723.02179.03125-.03125c.09695-.10606.45498-.21863.4375-.21875 .42286.00293.65496.21705.84375.59375s.22731.90525.125,1.28125c-.20426.7507-.71786,1.2306-1.40625,1.5s-1.55215.2977-2.25.03125c-2.11599-.8079-2.82469-3.42928-1.9375-5.4375 .77925-1.76385 2.58067-2.82958 4.5-2.90625l62.78125-.375v-1z" fill="#9f0000" fill-rule="evenodd"/>
<path d="m20.64451,48.665c-4.92432,7.82466-20.03466,21.14912-10.4623,25.26292 5.81053,1.89374 8.57568-1.98284 9.74683-4.54936h.23458l-3.85886,12.94643 8.93753-.03813c0,0-3.8501-12.44486-3.85886-12.92101h.09383c.94595,2.09718 4.53543,6.43867 8.48398,4.78527 11.54586-4.63487-5.4557-17.82387-9.31674-25.48613z" fill-rule="evenodd"/>
<path d="m18.68345,12.23383h6.39602v21.35874c-1e-005,2.94712-.84174,5.14954-2.52518,6.60727-1.67239,1.45771-4.20864,2.18657-7.60878,2.18658h-1.29582v-4.61083h.99678c1.32904,0 2.33136-.35387 3.00696-1.0616 .68667-.70773 1.03001-1.7482 1.03001-3.12142v-21.35874"/>
<path d="m118.03526,140c4.92432-7.82466 20.03466-21.14912 10.4623-25.26292-5.81053-1.89375-8.57568,1.98283-9.74683,4.54935h-.23458l3.85885-12.94643-8.93753.03813c0,0 3.8501,12.44485 3.85885,12.92101h-.09383c-.94594-2.09718-4.53543-6.43867-8.48398-4.78527-11.54585,4.63487 5.4557,17.82387 9.31675,25.48613z" fill-rule="evenodd"/>
<path d="m119.99629,176.99995h-6.39602v-21.35874c1e-005-2.94712.84174-5.14955 2.52519-6.60727 1.67238-1.45771 4.20864-2.18657 7.60877-2.18657h1.29581v4.61083h-.99678c-1.32904,0-2.33135.35386-3.00696,1.06159-.68666.70774-1.03,1.74821-1.03001,3.12142v21.35874"/>
<g transform="matrix(1,0,0,1,-82.63717,36.75000)">
<path d="m150.52907,17.56334c-5.97197,3.77388-13.46945-3.16524-17.45267,4.87929-3.49543,4.78231 7.52973,6.17381.56963,10.42391-4.75622,5.12438-4.47681,7.38038-.36918,8.00769-1.18232,5.66369-.32039,15.1708 2.27409,20.35543-3.2115,3.9032-.80442,2.56238 3.55276,3.37612-1.35384,2.15453-.57647,10.04962-5.20727,12.4888-2.33124,7.02153-.58347,14.64222-1.125,21.90625 11.27494,4.74824 24.62504,5.28755 35.40292,2.7547 4.73843-.99042 10.14533-1.36846 9.19083-8.1297 .28361-8.42628 1.28263-19.51808-7.91004-23.83032-5.37315-.75269-7.16434-4.38769-3.0403-9.54943 3.06287-8.35809 6.4398-4.86113 11.14346-6.97491 4.9011-1.31117-7.0014-4.53962-5.42958-9.97728-1.52268-4.25386-3.38369-9.25773-6.42986-12.71111 7.67894-.68963 8.50195-8.6974 2.26007-10.33194-6.18656-4.12231-9.83712,2.91376-14.54484-2.37461-.77934-.0133-2.10218-.50384-2.88502-.31289z"/>
<path d="m167.87283,48.82264c0,11.41333-7.56387,20.67633-16.88364,20.67633s-16.88363-9.263-16.88363-20.67633 7.56386-20.67633 16.88363-20.67633 16.88364,9.263 16.88364,20.67633z" fill="url(#linearGradient28236)"/>
<path d="m147.48242,69.97674c-7.04906,0-12.72482,5.67576-12.72482,12.72481v14.92936c9.37989,4.64913 29.52618,4.89382 40.61891,0v-14.92936c0-7.04905-5.67576-12.72481-12.72482-12.72481h-15.16927z" fill="url(#linearGradient28238)"/>
<path d="m132.27519,39.19141c2.52721-4.52856 5.05442-13.18058 19.12733-13.09086 21.84009.63989 16.63026,23.38154 24.45058,25.83576-4.85288,1.57731-7.29868,2.92847-14.54071.43017 .79167-5.69898-.49946-9.87884-3.92513-12.81512-4.26889,2.23887-20.73903,1.1746-25.11207-.35994z" fill-rule="evenodd"/>
<path d="m353,245.86218c0,11.868-9.408,21.5-21,21.5s-21-9.632-21-21.5 9.408-21.5 21-21.5 21,9.632 21,21.5z" fill="#fff" transform="matrix(.14486,0,0,.0979,99.31586,24.95111)"/>
<path d="m353,245.86218c0,11.868-9.408,21.5-21,21.5s-21-9.632-21-21.5 9.408-21.5 21-21.5 21,9.632 21,21.5z" fill="#1e2ecf" transform="matrix(.08278,0,0,.08197,118.62323,28.91854)"/>
<path d="m353,245.86218c0,11.868-9.408,21.5-21,21.5s-21-9.632-21-21.5 9.408-21.5 21-21.5 21,9.632 21,21.5z" transform="matrix(.05173,0,0,.06603,128.27692,32.98387)"/>
<path d="m353,245.86218c0,11.868-9.408,21.5-21,21.5s-21-9.632-21-21.5 9.408-21.5 21-21.5 21,9.632 21,21.5z" fill="#fff" transform="matrix(.14486,0,0,.0979,89.22736,24.61019)"/>
<path d="m353,245.86218c0,11.868-9.408,21.5-21,21.5s-21-9.632-21-21.5 9.408-21.5 21-21.5 21,9.632 21,21.5z" fill="#1828ce" transform="matrix(.08278,0,0,.08197,108.53473,28.57762)"/>
<path d="m353,245.86218c0,11.868-9.408,21.5-21,21.5s-21-9.632-21-21.5 9.408-21.5 21-21.5 21,9.632 21,21.5z" transform="matrix(.05173,0,0,.06603,118.18842,32.64295)"/>
<path d="m139.43865,62.20483c1.8485,3.62217 6.90032,1.94322 11.72783,0-5.32386.55967-8.99261.96923-11.72783,0z" fill="url(#linearGradient28240)" fill-rule="evenodd"/>
<path d="m161.57996,85.85585 1.26359.12326 1.37136,14.51276-3.46519.46578 .83024-15.1018z" fill="#700000"/>
<path d="m141.63609,50.14674c-.7919,1.28683-1.9449,3.40242-1.78064,4.37486s1.65238.76247 2.44234,1.32308l.33085-.47789c-.69469-.49301-1.78293-.00802-1.91799-.80756s.68108-2.91487 1.42171-4.11841l-.49627-.29408z" fill-rule="evenodd"/>
<path d="m142.93035,57.79972c-3.80355.37779-6.13342,3.30104-8.06137,5.42046 0,0 6.2375-3.45628 8.20167-3.38613-.1403-.49104.07015-1.12239-.1403-2.03432z" fill-rule="evenodd"/>
<path d="m143.79875,57.65535c3.38195.34612 9.84525,2.96975 10.14585,5.45942 0,0-7.88557-4.21785-9.7388-3.56328-.01303-.51053-.33502-.96301-.40705-1.89614z" fill-rule="evenodd"/>
<path d="m141.27046,71.64923c3.63328,11.22307 8.70407,20.94614 14.46235,29.54421l3.68565-.11199c-5.73774-9.20798-11.72548-19.60345-15.15072-30.81142 0,0-2.03609.62409-2.99728,1.3792z" fill="url(#linearGradient28242)" fill-rule="evenodd"/>
<path d="m138.68848,68.13095-.25,10.25 9.3125-5.6875v1.4375l3.6875.3125-.0625-1.9375 12.125,5.4375-1.25-12.0625-10.6875,5.4375-.25-1.8125-3.75-.25v1.9375l-8.875-3.0625z" fill="url(#linearGradient28244)" fill-rule="evenodd"/>
<path d="m138.49393,28.03209-.53718,2.59968c7.66667,2.22917 17.90768,1.87725 26.76185.91891-.01858-.35897-.34967-2.51859-.34967-2.51859-8.52083.875-19.41667.8125-25.875-1z" fill="url(#linearGradient28246)" fill-rule="evenodd"/>
<path d="m150.74393,29.59459c28.52083,3.83333 23.47917-13.39583 1.5625-7.625-21.14584-7.45833-26.22917,9.83333-1.5625,7.625z" fill="url(#linearGradient28248)" fill-rule="evenodd"/>
<path d="m110.8125,56.40625a3.71875,1.65625 0 1,1 -7.4375,0 3.71875,1.65625 0 1,1 7.4375,0z" fill="url(#linearGradient28250)" transform="translate(44.30643,-35.21791)"/>
<path d="m151.40274,19.54375c-1.81046,0-3.13777.61169-3.46925,1.375-12.88121-2.72131-17.58211,4.48432-9.53261,7.5625l-.40631,2.0625c-2.99834,2.78901-4.39251,6.2786-5.71957,8.65625 .75133.26361 2.22081.49726 3.56301.71875-1.06738,2.71138-1.719,5.69655-1.719,8.90625 0,4.4709 1.1842,8.58533 3.15671,11.96875-.84974.816-1.71153,1.67352-2.4066,2.4375 0,0 1.45776-.77841 3.00043-1.53125 3.02756,4.62079 7.59736,7.65185 12.78308,7.78125l-3.09419-.21875v.71875h-.06251c-.91622,0-1.8275.09897-2.68788.28125l-6.12588-2.125-.12502,5.53125c-2.32941,2.30379-3.78179,5.48161-3.78179,9.03125v14.9375c4.95763,2.45689 12.89405,3.61152 20.9405,3.5 .01272.01902.01852.04349.03125.0625l3.68803-.09375-.15627-.25c.4947-.03182.97767-.0828 1.46896-.125v.25l3.46925-.46875v-.03125c4.13511-.57877 8.02196-1.46048 11.15785-2.84375v-14.9375c-1e-005-7.0384-5.65405-12.70164-12.68932-12.71875l-.43756-4.09375-8.0324,4.09375h-2.84416l-.06251-.46875h-.21878c7.92631-.05332 14.51777-6.81624 16.28358-15.875 3.10222.16238 5.34441-.6616 8.50122-1.6875-5.48359-1.72064-4.73404-13.31826-11.22036-20.375h.06251c-.01536-.29686-.20247-1.57381-.28129-2.09375 10.99154-2.38533 5.53861-10.84107-9.68889-7.90625 .08651-.14007.37506-.22274.37506-.375 0-.91425-1.66624-1.65625-3.71929-1.65625z" fill="url(#linearGradient28252)"/>
</g>
</svg>
