<?xml version="1.0" encoding="UTF-8" standalone="no"?>
<svg viewBox="0 0 140 190" xmlns="http://www.w3.org/2000/svg" xmlns:xlink="http://www.w3.org/1999/xlink">
<defs>
<linearGradient gradientUnits="userSpaceOnUse" id="linearGradient4853" x1="2" x2="109" y1="62.09952" y2="127.69501">
<stop offset="0" stop-color="#ebf0d0"/>
<stop offset="1" stop-color="#ffffeb"/>
</linearGradient>
<linearGradient id="linearGradient6214">
<stop offset="0" stop-color="#c10000"/>
<stop offset="1" stop-color="#ff433e"/>
</linearGradient>
<linearGradient id="linearGradient5407">
<stop offset="0" stop-color="#f0eb00"/>
<stop offset="1" stop-color="#ff0"/>
</linearGradient>
<linearGradient gradientTransform="matrix(.18682,0,0,.14486,-40.31979,3.04928)" gradientUnits="userSpaceOnUse" id="linearGradient30461" x1="356.44232" x2="484.79608" y1="437.49887" y2="256.17966">
<stop offset="0" stop-color="#ffd8c1"/>
<stop offset="1" stop-color="#ffeded"/>
</linearGradient>
<linearGradient gradientUnits="userSpaceOnUse" id="linearGradient30469" x1="21.83686" x2="49.37334" y1="28.634" y2="21.47454">
<stop offset="0" stop-color="#f0a700"/>
<stop offset="1" stop-color="#ffed00"/>
</linearGradient>
<linearGradient gradientTransform="matrix(.18682,0,0,.14486,-40.31813,3.04769)" gradientUnits="userSpaceOnUse" id="linearGradient30477" x1="688.30371" x2="361.49808" y1="-31.9296" y2="346.66711">
<stop offset="0" stop-color="#fff"/>
<stop offset="1" stop-color="#fff" stop-opacity="0"/>
</linearGradient>
<linearGradient gradientUnits="userSpaceOnUse" id="linearGradient30463" x1="15.12334" x2="21.59041" xlink:href="#linearGradient5407" y1="73.42526" y2="72.27621"/>
<linearGradient gradientUnits="userSpaceOnUse" id="linearGradient30465" x1="25.38558" x2="47.16302" xlink:href="#linearGradient6214" y1="91.99058" y2="73.8835"/>
<linearGradient gradientUnits="userSpaceOnUse" id="linearGradient30467" x1="25.09671" x2="27.68188" xlink:href="#linearGradient6214" y1="66.55045" y2="63.04671"/>
<linearGradient gradientUnits="userSpaceOnUse" id="linearGradient30471" x1="22.3422" x2="50.09613" xlink:href="#linearGradient5407" y1="34.23551" y2="26.89927"/>
<linearGradient gradientUnits="userSpaceOnUse" id="linearGradient30473" x1="47.62126" x2="50.40843" xlink:href="#linearGradient5407" y1="75.20945" y2="73.44169"/>
<linearGradient gradientUnits="userSpaceOnUse" id="linearGradient30475" x1="29.00655" x2="36.29164" xlink:href="#linearGradient5407" y1="90.17401" y2="84.34039"/>
</defs>
<path d="m21,5h103c8.864,0 16,7.136 16,16v153c0,8.864-7.136,16-16,16h-103c-8.864,0-16-7.136-16-16v-153c0-8.864 7.136-16 16-16z" fill-opacity=".49804"/>
<path d="m17,1h103c8.864,0 16,7.136 16,16v153c0,8.864-7.136,16-16,16h-103c-8.864,0-16-7.136-16-16v-153c0-8.864 7.136-16 16-16z" fill="#fff"/>
<path d="m19,3h103c8.864,0 16,7.136 16,16v153c0,8.864-7.136,16-16,16h-103c-8.864,0-16-7.136-16-16v-153c0-8.864 7.136-16 16-16z" fill="#c7891f"/>
<path d="m18,2h103c8.864,0 16,7.136 16,16v153c0,8.864-7.136,16-16,16h-103c-8.864,0-16-7.136-16-16v-153c0-8.864 7.136-16 16-16z" fill="url(#linearGradient4853)"/>
<path d="m103.53125,21c-.49728.00194-.9726.09931-1.4375.28125-.9298.36388-1.73845,1.1114-2.03125,2.1875-.17557.64526-.12276,1.38092.1875,2s.93159,1.11934 1.75,1.125c.47552.00329.84996-.1962 1.15625-.53125 .15315-.16753.31341-.41588.3125-.71875s-.20998-.58273-.46875-.75l-.53125.8125c.07009.04531.00017-.00496 0-.0625s.01723-.02179-.03125.03125c-.09695.10606-.45498.21863-.4375.21875-.42286-.00293-.65496-.21705-.84375-.59375s-.22731-.90525-.125-1.28125c.20426-.7507.71786-1.23059 1.40625-1.5s1.55215-.2977 2.25-.03125c2.11599.8079 2.82469,3.42928 1.9375,5.4375-.77925,1.76385-2.58067,2.82959-4.5,2.90625l-62.78125.375v1l62.5625-.375v.0625c.07809.00035.14087-.05998.21875-.0625h.34375v-.09375c2.16345-.19422 4.19059-1.36191 5.09375-3.40625 1.10087-2.49188.1434-5.74812-2.5625-6.78125-.4725-.1804-.97148-.25194-1.46875-.25zm11.40625,3.03125c-.67184.02277-1.34578.16228-1.96875.4375-2.04434.90316-3.21203,2.9303-3.40625,5.09375h-.09375v.34375c-.00252.07788-.06285.14066-.0625.21875h.0625l.25,69.09375h1l-.25-69.3125c.07667-1.91933 1.1424-3.72075 2.90625-4.5 2.00822-.88719 4.6296-.17849 5.4375,1.9375 .26645.69785.23816,1.56161-.03125,2.25s-.7493,1.20199-1.5,1.40625c-.376.10231-.90455.06379-1.28125-.125s-.59082-.42089-.59375-.84375c.00012.01748.11269-.34055.21875-.4375 .05304-.04848.08879-.03107.03125-.03125s-.10781-.07009-.0625,0l.8125-.53125c-.16727-.25877-.44713-.46784-.75-.46875s-.55122.15935-.71875.3125c-.33505.30629-.53454.68073-.53125,1.15625 .00566.81841.50592,1.43974 1.125,1.75s1.35474.36307 2,.1875c1.0761-.2928 1.82362-1.10145 2.1875-2.03125 .18194-.4649.27931-.94022.28125-1.4375s-.0696-.99625-.25-1.46875c-.77485-2.02942-2.79699-3.0683-4.8125-3zm-85.65625,65.96875 .25,69.3125c-.07667,1.91933-1.1424,3.72074-2.90625,4.5-2.00822.88719-4.6296.17848-5.4375-1.9375-.26645-.69785-.23816-1.56162.03125-2.25s.7493-1.202 1.5-1.40625c.376-.10231.90455-.0638 1.28125.125s.59082.42088.59375.84375c-.00012-.01748-.11269.34054-.21875.4375-.05304.04848-.08879.03106-.03125.03125s.10781.07008.0625,0l-.8125.53125c.16727.25877.44713.46783.75.46875s.55122-.15936.71875-.3125c.33505-.30629.53454-.68074.53125-1.15625-.00566-.81841-.50592-1.43975-1.125-1.75s-1.35474-.36308-2-.1875c-1.0761.2928-1.82362,1.10144-2.1875,2.03125-.18194.4649-.27931.94021-.28125,1.4375s.0696.99624.25,1.46875c1.03313,2.7059 4.28937,3.66336 6.78125,2.5625 2.04434-.90316 3.21203-2.93031 3.40625-5.09375h.09375v-.34375c.00252-.07788.06285-.14067.0625-.21875h-.0625l-.25-69.09375h-1zm71.375,67.3125-62.5625.375v-.0625c-.07809-.00035-.14087.05998-.21875.0625h-.34375v.09375c-2.16345.19422-4.19059,1.36191-5.09375,3.40625-1.10087,2.49189-.1434,5.74812 2.5625,6.78125 .4725.1804.97148.25194 1.46875.25s.9726-.09931 1.4375-.28125c.9298-.36388 1.73845-1.1114 2.03125-2.1875 .17556-.64526.12276-1.38092-.1875-2s-.93159-1.11934-1.75-1.125c-.47552-.00329-.84996.1962-1.15625.53125-.15315.16753-.31341.41588-.3125.71875s.20998.58273.46875.75l.53125-.8125c-.07009-.04531-.00017.00496 0,.0625s-.01723.02179.03125-.03125c.09695-.10606.45498-.21863.4375-.21875 .42286.00293.65496.21705.84375.59375s.22731.90525.125,1.28125c-.20426.7507-.71786,1.2306-1.40625,1.5s-1.55215.2977-2.25.03125c-2.11599-.8079-2.82469-3.42928-1.9375-5.4375 .77925-1.76385 2.58067-2.82958 4.5-2.90625l62.78125-.375v-1z" fill="#9f0000" fill-rule="evenodd"/>
<path d="m10.02718,12.24009h6.39615v10.95108l9.22043-10.95108h7.42618l-11.94502,14.20627 13.17441,15.79367h-8.00765l-9.86835-11.81511v11.81511h-6.39615v-29.99994"/>
<path d="m128.66278,176.62997h-6.39616v-10.95109l-9.22043,10.95109h-7.42618l11.94502-14.20628-13.17441-15.79367h8.00766l9.86834,11.81512v-11.81512h6.39616v29.99995"/>
<path d="m20.77451,48.665c-4.92432,7.82466-20.03466,21.14912-10.4623,25.26293 5.81053,1.89374 8.57568-1.98284 9.74683-4.54936h.23458l-3.85886,12.94643 8.93753-.03812c0,0-3.8501-12.44486-3.85886-12.92102h.09383c.94595,2.09718 4.53543,6.43867 8.48398,4.78527 11.54586-4.63488-5.4557-17.82387-9.31674-25.48613z" fill-rule="evenodd"/>
<path d="m118.66549,140c4.92432-7.82466 20.03466-21.14912 10.4623-25.26292-5.81053-1.89375-8.57568,1.98284-9.74683,4.54936h-.23458l3.85885-12.94644-8.93753.03813c0,0 3.8501,12.44486 3.85886,12.92101h-.09383c-.94595-2.09718-4.53543-6.43866-8.48399-4.78527-11.54585,4.63488 5.4557,17.82388 9.31675,25.48613z" fill-rule="evenodd"/>
<g transform="matrix(1.00012,0,0,1,36.24878,36.75000)">
<path d="m31.8687,16.58895c-1.98418-1.6215-3.4181-2.63065-5.77799-5.11869-1.76601,7.18473-4.00234,6.1544-7.02786,3.61115-3.01852-3.0358-2.78106,11.10316-8.60263-1.83597-1.67802.2303 1.73771,10.87919 2.20122,15.0188 3.46918,4.89443-2.0114,11.09632-.27571,14.59782 5.73683-.37638.64032,6.22616 2.35815,9.76036 .37339,4.6799 2.0213,8.45652 2.6607,12.73388 9.69575,4.43124-8.41964,7.46303-4.22113,11.01299 .79456,3.26584-1.55866,9.16934-.56012,13.58076-.71246,5.99944-.62702,11.41412 6.75,11.6875 12.7806,2.47945 25.81693,2.3938 37.875-2.34375 .13459-6.98743-.09522-14.90643-.21875-21.34375 3.16471-3.8642-7.89517-6.49837-10.37964-9.98206 3.52741-4.32119 2.31029-12.72433 9.46436-13.32683 .75941-6.25903-1.41361-13.95913-4.74098-19.84736 1.07033-7.66041 2.34273-15.29527 3.0625-23-7.16964,14.7944-4.28406-3.01395-7.45091,4.0129-2.05071,2.30711-3.29827-.73022-4.60391-.61039-1.29637-5.81763-3.64802,7.24466-5.38268-3.65251-2.2441,9.14114-2.86634-6.30172-4.45309,3.07223l-.67655,1.97293z"/>
<path d="m50.25224,50.39684c0,11.41333-7.56387,20.67633-16.88364,20.67633s-16.88363-9.263-16.88363-20.67633 7.56387-20.67633 16.88363-20.67633 16.88364,9.263 16.88364,20.67633z" fill="url(#linearGradient30461)"/>
<path d="m16.87334,76.54379-2.04549-1.42678 6.78033-5.53033 1.51516,3.20711c0,0-5.91889,4.01925-6.25,3.75z" fill="url(#linearGradient30463)" fill-rule="evenodd"/>
<path d="m27.3433,70.21122c-7.04906,0-12.72482,5.67576-12.72482,12.72481v14.92936c9.37989,4.64913 29.52618,4.89382 40.61891,0v-14.92936c0-7.04905-5.67576-12.72481-12.72481-12.72481h-15.16928z" fill="url(#linearGradient30465)"/>
<path d="m13.82991,41.09549c0,0 1.69795-14.37493 20.61177-14.41036 19.97625.81952 19.99724,26.49551 19.99724,26.49551-4.85289,1.57731-3.50509,3.25835-10.74712.76004 .79167-5.69898-.49946-9.87884-3.92513-12.81512-4.26889,2.23887-21.56372,1.50448-25.93676-.03007z" fill-rule="evenodd"/>
<path d="m353,245.86218c0,11.868-9.408,21.5-21,21.5s-21-9.632-21-21.5 9.408-21.5 21-21.5 21,9.632 21,21.5z" fill="#fff" transform="matrix(.14486,0,0,.0979,-18.30473,26.52531)"/>
<path d="m353,245.86218c0,11.868-9.408,21.5-21,21.5s-21-9.632-21-21.5 9.408-21.5 21-21.5 21,9.632 21,21.5z" fill="#0f1fcc" transform="matrix(.08278,0,0,.08197,1.00264,30.49274)"/>
<path d="m353,245.86218c0,11.868-9.408,21.5-21,21.5s-21-9.632-21-21.5 9.408-21.5 21-21.5 21,9.632 21,21.5z" transform="matrix(.05173,0,0,.06603,10.65633,34.55807)"/>
<path d="m353,245.86218c0,11.868-9.408,21.5-21,21.5s-21-9.632-21-21.5 9.408-21.5 21-21.5 21,9.632 21,21.5z" fill="#fff" transform="matrix(.14486,0,0,.0979,-28.39323,26.18439)"/>
<path d="m353,245.86218c0,11.868-9.408,21.5-21,21.5s-21-9.632-21-21.5 9.408-21.5 21-21.5 21,9.632 21,21.5z" fill="#0f1fcc" transform="matrix(.08278,0,0,.08197,-9.08586,30.15182)"/>
<path d="m353,245.86218c0,11.868-9.408,21.5-21,21.5s-21-9.632-21-21.5 9.408-21.5 21-21.5 21,9.632 21,21.5z" transform="matrix(.05173,0,0,.06603,.56783,34.21715)"/>
<path d="m21.81807,63.77902c2.92028.13891 7.30222.33556 11.72782,0-4.654-1.71785-7.92084-2.24609-11.72782,0z" fill="url(#linearGradient30467)" fill-rule="evenodd"/>
<path d="m41.44084,86.09033 1.26359.12326 1.37136,14.51276-3.46519.2504 .83024-14.88642z" fill="#700000"/>
<path d="m23.47961,51.98888c-.7919,1.28683-1.9449,3.40242-1.78064,4.37486s1.65238.76247 2.44234,1.32308l.33085-.47789c-.69469-.49301-1.78292-.00802-1.91798-.80756s.68107-2.91487 1.4217-4.11841l-.49627-.29408z" fill-rule="evenodd"/>
<path d="m25.2155,64.5725c1.104,2.33664-.66812,2.35836-1.45815,2.73082-.6143-.46097-1.92958-1.8291-2.3377-2.78488-.12841,5.30673 1.72452,8.20339 3.06802,9.66903s9.28238,2.56487 13.55716,0 13.23888-11.33624 8.36227-18.51778c-.66766.46471-1.88404.36323-2.74399.19728 .12214,1.58778-2.01866,6.19015-5.92703,7.90006s-6.72319,2.12332-7.75227,3.65593c-2.01117.05948-3.13355-.74849-2.22161-2.8323-.49104.16096-2.00617-.02066-2.54671-.01816z" fill-rule="evenodd"/>
<path d="m26.13446,59.20898c0,0-7.08506,1.82388-7.50595,3.08656s1.05224,2.73581 1.05224,2.73581 4.62984-3.8582 6.59401-3.78805c-.1403-.49104.07015-1.12239-.1403-2.03432z" fill-rule="evenodd"/>
<path d="m26.67298,59.22955c0,0 7.40846.11547 8.18785,1.19439s-.18555,2.92531-.18555,2.92531-5.74202-2.87813-7.59525-2.22356c-.01304-.51053-.33503-.96301-.40705-1.89614z" fill-rule="evenodd"/>
<path d="m15.44656,23.67767 2.58839-6.60355 5.08839,6.96967 3.57322-8.73744 4.45711,8.5481c0,0 3.13128-8.84056 3.13128-8.164s3.2955,9.22466 3.2955,9.22466l3.75-8.19454 2.49012,8.10616 4.30278-7.03293 1.25,6.25v5c0,0-27.5,1.25-30,0s-4.01383-5.22161-3.92678-5.36612z" fill="url(#linearGradient30469)" fill-rule="evenodd"/>
<path d="m16.15501,35.22428c10.07627,2.38649 22.62742,2.47487 33.14563,0l2.38649-16.52862-4.5962,6.54074-2.82843-7.42462-3.53553,7.24784-3.62392-8.30851-3.27037,8.22012-3.71231-8.04334-3.27037,8.75045-4.86136-7.6014-3.62392,7.86656-5.56847-6.89429c0,0 3.09359,15.82151 3.35876,16.17507z" fill="url(#linearGradient30471)" fill-rule="evenodd"/>
<path d="m46.64899,69.78412c-.6721.50967-2.91681,2.38649-2.91681,2.38649l9.39117,6.87318 2.5-2.5-8.97435-6.75967z" fill="url(#linearGradient30473)" fill-rule="evenodd"/>
<path d="m32.53269,86.85248-6.94171-7.94776h17.40459l-10.46287,7.94776z" fill="#ff8900" fill-rule="evenodd"/>
<path d="m30.25834,81.01348-2.75439,3.39645 3.93934,2.7526-4.27854,3.06445 2.85177,2.832 2.89348-4.92418 2.99041,4.82323 3.04289-3.2955-5-2.5 4.72227-3.21967-3.11872-2.7526-2.54847,4.98744-2.74004-5.16422z" fill="url(#linearGradient30475)" fill-rule="evenodd"/>
<path d="m26.6875,15.2922-2.53125,6.1875-2.15625-3.40625-1.25,2.71875-2.71875-3.71875-2.21875,5.6875-3-3.71875c0,0 3.07858,15.83395 3.34375,16.1875h.03125c-1.94548,3.09544-2.34375,5.875-2.34375,5.875 .86733.30435 2.50601.5568 4.1875.78125-.96612,2.60342-1.53125,5.45559-1.53125,8.5 0,4.21741 1.03997,8.13493 2.8125,11.40625-.23986.17339-.6341.3398-.6875.5-.42089,1.26268 1.0625,2.75 1.0625,2.75s.78779-.56256 1.1875-.875c.1986.27012.35268.58679.5625.84375 .00387,2.65104.5175,4.60405 1.1875,6.125-.07887.0314-.17192.02958-.25.0625l-.75-1.625-6.78125,5.53125 1.84375,1.3125c-1.18474,1.93422-2.0625,4.08782-2.0625,6.53125v14.90625c6.01236,2.98002 16.36036,3.92628 26,3.09376v.03125l3.4375-.25v-.03125c4.13452-.57877 8.05206-1.46049 11.1875-2.84376v-14.90625c0-1.77789-.37817-3.46586-1.03125-5l1.40625-1.40625-8.96875-6.75c-.23706.17977-.57039.46615-1.03125.84375-.93882-.23512-1.92747-.39146-2.9375-.40625 2.43804-2.53454 4.70976-5.74921 5.0625-9.125 .92232-1.85096 1.6198-3.85822 2.03125-6.03125 1.25429-.27217 2.1273-1.08428 4.65625-1.90625 0,0-.04063-10.2699-5.125-18.03125l2.375-16.4375-2.625,3.75-.9375-4.65625-2.375,3.90625-1.5-3.875-1.59375,3.25-1.3125-4.34375-2.1875,4.78125-2.0625-4.75-1.28125,3.21875c-.76089-2.06382-1.53125-3.96722-1.53125-4.28125 0-.46436-1.23094,3.027-2.15625,5.59375l-2-4.375-1.09375,2.875-2.34375-4.5z" fill="url(#linearGradient30477)"/>
</g>
</svg>
