<?xml version="1.0" encoding="UTF-8" standalone="no"?>
<svg viewBox="0 0 140 190" xmlns="http://www.w3.org/2000/svg" xmlns:xlink="http://www.w3.org/1999/xlink">
<defs>
<linearGradient id="linearGradient6214">
<stop offset="0" stop-color="#c10000"/>
<stop offset="1" stop-color="#ff433e"/>
</linearGradient>
<linearGradient id="linearGradient3857">
<stop offset="0" stop-color="#ffd8c1"/>
<stop offset="1" stop-color="#ffeded"/>
</linearGradient>
<linearGradient gradientUnits="userSpaceOnUse" id="linearGradient39565" x1="2" x2="109" y1="62.09952" y2="127.69501">
<stop offset="0" stop-color="#ebf0d0"/>
<stop offset="1" stop-color="#ffffeb"/>
</linearGradient>
<linearGradient gradientUnits="userSpaceOnUse" id="linearGradient1865" x1="632" x2="698" y1="146.36218" y2="85.36218">
<stop offset="0" stop-color="#f0a700"/>
<stop offset="1" stop-color="#ffed00"/>
</linearGradient>
<linearGradient gradientUnits="userSpaceOnUse" id="linearGradient1867" x1="653" x2="708" y1="210.36218" y2="160.36218">
<stop offset="0" stop-color="#f0eb00"/>
<stop offset="1" stop-color="#ff0"/>
</linearGradient>
<linearGradient gradientUnits="userSpaceOnUse" id="linearGradient1873" x1="137.42386" x2="57.2784" y1="31.80191" y2="83.62009">
<stop offset="0" stop-color="#fff"/>
<stop offset="1" stop-color="#fff" stop-opacity="0"/>
</linearGradient>
<linearGradient gradientTransform="matrix(.18682,0,0,.14486,-10.16135,37.83660)" gradientUnits="userSpaceOnUse" id="linearGradient1861" x1="356.44232" x2="484.79608" xlink:href="#linearGradient3857" y1="437.49887" y2="256.17966"/>
<linearGradient gradientUnits="userSpaceOnUse" id="linearGradient1863" x1="58.54402" x2="80.32146" xlink:href="#linearGradient6214" y1="128.77788" y2="110.6708"/>
<linearGradient gradientUnits="userSpaceOnUse" id="linearGradient1869" x1="55.25515" x2="57.84032" xlink:href="#linearGradient6214" y1="99.99432" y2="96.49058"/>
<linearGradient gradientUnits="userSpaceOnUse" id="linearGradient1871" x1="55.3148" x2="67.98756" xlink:href="#linearGradient3857" y1="116.98749" y2="107.7979"/>
</defs>
<path d="m21,5h103c8.864,0 16,7.136 16,16v153c0,8.864-7.136,16-16,16h-103c-8.864,0-16-7.136-16-16v-153c0-8.864 7.136-16 16-16z" fill-opacity=".49804"/>
<path d="m17,1h103c8.864,0 16,7.136 16,16v153c0,8.864-7.136,16-16,16h-103c-8.864,0-16-7.136-16-16v-153c0-8.864 7.136-16 16-16z" fill="#fff"/>
<path d="m19,3h103c8.864,0 16,7.136 16,16v153c0,8.864-7.136,16-16,16h-103c-8.864,0-16-7.136-16-16v-153c0-8.864 7.136-16 16-16z" fill="#c7891f"/>
<path d="m18,2h103c8.864,0 16,7.136 16,16v153c0,8.864-7.136,16-16,16h-103c-8.864,0-16-7.136-16-16v-153c0-8.864 7.136-16 16-16z" fill="url(#linearGradient39565)"/>
<path d="m103.53125,21c-.49728.00194-.9726.09931-1.4375.28125-.9298.36388-1.73845,1.1114-2.03125,2.1875-.17557.64526-.12276,1.38092.1875,2s.93159,1.11934 1.75,1.125c.47552.00329.84996-.1962 1.15625-.53125 .15315-.16753.31341-.41588.3125-.71875s-.20998-.58273-.46875-.75l-.53125.8125c.07009.04531.00017-.00496 0-.0625s.01723-.02179-.03125.03125c-.09695.10606-.45498.21863-.4375.21875-.42286-.00293-.65496-.21705-.84375-.59375s-.22731-.90525-.125-1.28125c.20426-.7507.71786-1.23059 1.40625-1.5s1.55215-.2977 2.25-.03125c2.11599.8079 2.82469,3.42928 1.9375,5.4375-.77925,1.76385-2.58067,2.82959-4.5,2.90625l-62.78125.375v1l62.5625-.375v.0625c.07809.00035.14087-.05998.21875-.0625h.34375v-.09375c2.16345-.19422 4.19059-1.36191 5.09375-3.40625 1.10087-2.49188.1434-5.74812-2.5625-6.78125-.4725-.1804-.97148-.25194-1.46875-.25zm11.40625,3.03125c-.67184.02277-1.34578.16228-1.96875.4375-2.04434.90316-3.21203,2.9303-3.40625,5.09375h-.09375v.34375c-.00252.07788-.06285.14066-.0625.21875h.0625l.25,69.09375h1l-.25-69.3125c.07667-1.91933 1.1424-3.72075 2.90625-4.5 2.00822-.88719 4.6296-.17849 5.4375,1.9375 .26645.69785.23816,1.56161-.03125,2.25s-.7493,1.20199-1.5,1.40625c-.376.10231-.90455.06379-1.28125-.125s-.59082-.42089-.59375-.84375c.00012.01748.11269-.34055.21875-.4375 .05304-.04848.08879-.03107.03125-.03125s-.10781-.07009-.0625,0l.8125-.53125c-.16727-.25877-.44713-.46784-.75-.46875s-.55122.15935-.71875.3125c-.33505.30629-.53454.68073-.53125,1.15625 .00566.81841.50592,1.43974 1.125,1.75s1.35474.36307 2,.1875c1.0761-.2928 1.82362-1.10145 2.1875-2.03125 .18194-.4649.27931-.94022.28125-1.4375s-.0696-.99625-.25-1.46875c-.77485-2.02942-2.79699-3.0683-4.8125-3zm-85.65625,65.96875 .25,69.3125c-.07667,1.91933-1.1424,3.72074-2.90625,4.5-2.00822.88719-4.6296.17848-5.4375-1.9375-.26645-.69785-.23816-1.56162.03125-2.25s.7493-1.202 1.5-1.40625c.376-.10231.90455-.0638 1.28125.125s.59082.42088.59375.84375c-.00012-.01748-.11269.34054-.21875.4375-.05304.04848-.08879.03106-.03125.03125s.10781.07008.0625,0l-.8125.53125c.16727.25877.44713.46783.75.46875s.55122-.15936.71875-.3125c.33505-.30629.53454-.68074.53125-1.15625-.00566-.81841-.50592-1.43975-1.125-1.75s-1.35474-.36308-2-.1875c-1.0761.2928-1.82362,1.10144-2.1875,2.03125-.18194.4649-.27931.94021-.28125,1.4375s.0696.99624.25,1.46875c1.03313,2.7059 4.28937,3.66336 6.78125,2.5625 2.04434-.90316 3.21203-2.93031 3.40625-5.09375h.09375v-.34375c.00252-.07788.06285-.14067.0625-.21875h-.0625l-.25-69.09375h-1zm71.375,67.3125-62.5625.375v-.0625c-.07809-.00035-.14087.05998-.21875.0625h-.34375v.09375c-2.16345.19422-4.19059,1.36191-5.09375,3.40625-1.10087,2.49189-.1434,5.74812 2.5625,6.78125 .4725.1804.97148.25194 1.46875.25s.9726-.09931 1.4375-.28125c.9298-.36388 1.73845-1.1114 2.03125-2.1875 .17556-.64526.12276-1.38092-.1875-2s-.93159-1.11934-1.75-1.125c-.47552-.00329-.84996.1962-1.15625.53125-.15315.16753-.31341.41588-.3125.71875s.20998.58273.46875.75l.53125-.8125c-.07009-.04531-.00017.00496 0,.0625s-.01723.02179.03125-.03125c.09695-.10606.45498-.21863.4375-.21875 .42286.00293.65496.21705.84375.59375s.22731.90525.125,1.28125c-.20426.7507-.71786,1.2306-1.40625,1.5s-1.55215.2977-2.25.03125c-2.11599-.8079-2.82469-3.42928-1.9375-5.4375 .77925-1.76385 2.58067-2.82958 4.5-2.90625l62.78125-.375v-1z" fill="#9f0000" fill-rule="evenodd"/>
<path d="m22.03866,42.78256h-.4984c-4.0869,0-7.26559-1.36637-9.53608-4.09912s-3.40575-6.53715-3.40574-11.41324c0-4.86266 1.12971-8.67377 3.38913-11.43333 2.27049-2.75951 5.3938-4.13928 9.36995-4.13931 4.02042,3e-005 7.14927,1.3664 9.38656,4.09912 2.24832,2.73277 3.37249,6.55728 3.37252,11.47352-3e-005,3.37576-.59811,6.28265-1.79425,8.72068-1.18511,2.43804-2.89629,4.27327-5.13354,5.50568l5.00063,6.75149h-6.09711l-4.05367-5.4655m-.68115-25.47885c-1.94932,3e-005-3.46113.87075-4.53545,2.61219s-1.61151,4.19291-1.6115,7.35431c-1e-005,3.21501.52608,5.67984 1.57827,7.39449 1.05217,1.70127 2.57506,2.55191 4.56868,2.5519 1.96036,0 3.47772-.87072 4.55207-2.61219s1.61148-4.18618 1.6115-7.33421c-2e-005-3.1614-.53719-5.61283-1.6115-7.35431s-2.59171-2.61216-4.55207-2.61219"/>
<path d="m116.6513,146.0875h.4984c4.08691,0 7.26559,1.36637 9.53608,4.09912s3.40575,6.53714 3.40574,11.41323c1e-005,4.86266-1.1297,8.67378-3.38913,11.43334-2.27049,2.7595-5.3938,4.13927-9.36994,4.1393-4.02043-3e-005-7.14928-1.3664-9.38656-4.09912-2.24832-2.73277-3.3725-6.55728-3.37252-11.47352 2e-005-3.37575.59811-6.28265 1.79425-8.72068 1.1851-2.43805 2.89628-4.27326 5.13353-5.50568l-5.00063-6.75149h6.09712l4.05366,5.4655m.68115,25.47884c1.94931-2e-005 3.46113-.87075 4.53545-2.61218s1.6115-4.19291 1.6115-7.35431c0-3.215-.52608-5.67983-1.57827-7.39449-1.05217-1.70128-2.57506-2.55191-4.56868-2.55191-1.96037,0-3.47772.87072-4.55207,2.6122s-1.61148,4.18617-1.6115,7.3342c2e-005,3.1614.53719,5.61282 1.6115,7.35431s2.5917,2.61216 4.55207,2.61218"/>
<path d="m20.64451,48.665c-4.92432,7.82466-20.03466,21.14913-10.4623,25.26293 5.81053,1.89374 8.57568-1.98284 9.74683-4.54936h.23458l-3.85886,12.94643 8.93753-.03812c0,0-3.8501-12.44486-3.85886-12.92102h.09383c.94595,2.09719 4.53543,6.43867 8.48398,4.78527 11.54586-4.63488-5.4557-17.82388-9.31674-25.48613z" fill-rule="evenodd"/>
<path d="m118.03526,140c4.92432-7.82466 20.03466-21.14913 10.4623-25.26293-5.81053-1.89374-8.57568,1.98284-9.74683,4.54936h-.23458l3.85885-12.94643-8.93753.03812c0,0 3.8501,12.44486 3.85885,12.92102h-.09383c-.94594-2.09719-4.53543-6.43867-8.48398-4.78527-11.54585,4.63488 5.4557,17.82387 9.31675,25.48613z" fill-rule="evenodd"/>
<g transform="translate(0,-7.206117e-6)">
<path d="m55.83765,46.05699c.24877,8.38925-8.77437-11.84219-4.94988,1.01782-.17772,4.94541 5.74504,12.64642 1.64348,15.6552-5.48932,3.20138-9.41485,8.6823-11.28125,14.71875 6.72368-.95439 2.78314,4.80719 3.48868,8.90285 .20578,7.74942 5.80181,16.13283 12.77504,19.89745-8.46614,1.63233-11.53995,8.88467-10.66921,15.8933-5.69383,3.82426-.00893,8.98375-.85061,12.52515 1.62018,3.9894 8.93994,3.76337 13.0686,4.9375 10.52142.87167 21.44044.54476 31.34375-3.5-.82413-9.42441 4.23722-22.26587-8.28887-28.64405 6.22397-.11589 14.09816-1.57051 20.13262-2.8872-6.86445-2.70816-18.92547-5.57797-16.75933-15.30754 1.53439-11.46505-2.27269-26.82273-15.42817-28.97371 1.02828-6.32217 2.54878-12.58985 2.5-19.03125-5.6776,14.51139-4.54664-8.82038-7.21885,1.21788-2.05386,7.8029-3.52234-10.3765-5.18137,2.97753-1.97337-2.18381-3.70162-14.03825-3.85184-2.27548l-.47279,2.8758z"/>
<path d="m80.41068,85.18418c0,11.41333-7.56387,20.67633-16.88363,20.67633s-16.88363-9.263-16.88363-20.67633 7.56387-20.67633 16.88363-20.67633 16.88363,9.263 16.88363,20.67633z" fill="url(#linearGradient1861)"/>
<path d="m60.48695,107.0124c-7.04906,0-12.71875,5.6697-12.71875,12.71875v3.1875c-1.17769,1.83346-2.33281,3.55351-2.09375,4.96875 .17641,1.04431 1.09286,1.89231 2.09375,2.625v4.125c9.37989,4.64912 29.53227,4.89382 40.625,0v-14.90625c0-7.04905-5.66969-12.71875-12.71875-12.71875h-15.1875z" fill="url(#linearGradient1863)"/>
<path d="m43.98835,75.88283c0,0 3.89641-14.13066 20.61177-14.41037 16.43429-.2797 20.82007,13.88234 18.9667,29.83225-1.71283,8.50141 11.9007,12.7853 11.9007,12.7853-4.85289,1.57731-16.45158,3.01407-23.69361.51577 6.28782-4.72189 1.04653-27.34759-2.37914-30.28387-4.26889,3.38791-21.03339,3.09546-25.40643,1.56092z" fill-rule="evenodd"/>
<path d="m353,245.86218c0,11.868-9.408,21.5-21,21.5s-21-9.632-21-21.5 9.408-21.5 21-21.5 21,9.632 21,21.5z" fill="#fff" transform="matrix(.14486,0,0,.14486,12.05212,48.95736)"/>
<path d="m353,245.86218c0,11.868-9.408,21.5-21,21.5s-21-9.632-21-21.5 9.408-21.5 21-21.5 21,9.632 21,21.5z" fill="#1828ce" transform="matrix(.08278,0,0,.12128,31.35949,54.82755)"/>
<path d="m353,245.86218c0,11.868-9.408,21.5-21,21.5s-21-9.632-21-21.5 9.408-21.5 21-21.5 21,9.632 21,21.5z" transform="matrix(.05173,0,0,.09769,41.01318,60.84261)"/>
<g transform="matrix(.1198,0,0,9.705316e-2,-17.65310,42.17850)">
<path d="m618,99.36218 10-85 38,115c0,0 34-123 34-119s23,91 23,91l-18,70h-77l-10-72z" fill="url(#linearGradient1865)" fill-rule="evenodd"/>
<path d="m589,51.36218 36,179c27,10.66667 60,9.33333 84,1l25-178-44,89-23-119-23,118-55-90z" fill="url(#linearGradient1867)" fill-rule="evenodd"/>
</g>
<path d="m353,245.86218c0,11.868-9.408,21.5-21,21.5s-21-9.632-21-21.5 9.408-21.5 21-21.5 21,9.632 21,21.5z" fill="#fff" transform="matrix(.14486,0,0,.14486,1.96362,48.45296)"/>
<path d="m353,245.86218c0,11.868-9.408,21.5-21,21.5s-21-9.632-21-21.5 9.408-21.5 21-21.5 21,9.632 21,21.5z" fill="#1828ce" transform="matrix(.08278,0,0,.12128,21.27099,54.32315)"/>
<path d="m353,245.86218c0,11.868-9.408,21.5-21,21.5s-21-9.632-21-21.5 9.408-21.5 21-21.5 21,9.632 21,21.5z" transform="matrix(.05173,0,0,.09769,30.92468,60.33821)"/>
<path d="m51.9765,97.22286c3.53096,4.4137 6.93581,2.90043 11.72782,0-4.28759-.25221-7.18802-1.51327-11.72782,0z" fill="url(#linearGradient1869)" fill-rule="evenodd"/>
<path d="m74.59928,122.87767 1.26359.12326 1.37136,14.51276-3.46519.2504 .83024-14.88642z" fill="#700000"/>
<path d="m57.96875,128.32376-.8125.5625c2.04351,2.96102 3.74141,5.67398 5.8872,6.05716s4.67292-1.55035 6.70655-2.46341l-.40625-.90625c-1.95616.87828-3.84349,1.42304-5.6875,1.09375s-3.74122-1.52363-5.6875-4.34375z" fill="#700000" fill-rule="evenodd"/>
<path d="m53.6381,86.77622c-.7919,1.28683-1.73445,2.49048-1.57019,3.46292s1.44193,1.67441 2.23189,2.23502l.33085-.47789c-.69469-.49301-1.15158-1.1304-1.28664-1.92995s.04973-1.79248.79036-2.99602l-.49627-.29408z" fill-rule="evenodd"/>
<path d="m58.47372,107.54847c0,0-6.31784,11.77416-4.88197,20.38939 5.45632-9.76393 12.63568-19.24069 16.65613-20.96374-1.43587-.57435-10.33829-.28718-11.77416.57435z" fill="url(#linearGradient1871)" fill-rule="evenodd"/>
<path d="m45.58577,127.81045c.27928,1.65332 2.45152,2.84678 3.79459,3.79992l.32637-.26906c-1.18109-.83819-1.76392-.95624-1.99354-2.31562s-2.4067-2.86856-2.12742-1.21524z" fill="#700000" fill-rule="evenodd"/>
<path d="m66.21875,43.19852c0-.24209-1.37005,3.72712-2.5625,7.1875l-1.40625-5.9375-1.59375,6.65625-3.0625-7.53125-1.21875,8.1875-3.46875-4.59375 3.90625,15.78125c-10.09562,3.59556-12.8125,12.9375-12.8125,12.9375 .88934.31208 2.51373.52992 4.21875.71875-.98259,2.62162-1.5625,5.52192-1.5625,8.59375 0,11.41334 7.55523,20.65627 16.875,20.65627 3.86397,0 7.37235-1.66616 10.21875-4.34375-.46693,1.30414-1.06631,2.41606-1.96875,3.09375 7.24203,2.4983 18.83462,1.0773 23.6875-.5 0,0-13.61908-4.3111-11.90625-12.81252 1.72205-14.81975-2.07081-27.91733-15.78125-29.5l2.5-14.4375-1.84375,3c-.68391-2.10691-2.21875-6.84118-2.21875-7.15625zm-5.71875,63.81252c-7.04905,0-12.71875,5.6697-12.71875,12.71875v3.1875c-1.17769,1.83346-2.33281,3.55351-2.09375,4.96875 .17641,1.04431 1.09286,1.89231 2.09375,2.625v4.15625c6.01214,2.97991 16.36065,3.9261 26,3.09375 1.14861-.09918 2.32032-.09362 3.4375-.25 4.13462-.57876 8.05199-1.46045 11.1875-2.84375v-14.9375c0-7.04905-5.70094-12.71875-12.75-12.71875h-15.15625z" fill="url(#linearGradient1873)"/>
</g>
</svg>
